<?xml version="1.0" encoding="utf-8"?>
<!-- Generator: Adobe Illustrator 25.0.1, SVG Export Plug-In . SVG Version: 6.00 Build 0)  -->
<svg version="1.0" id="Layer_1" xmlns="http://www.w3.org/2000/svg" xmlns:xlink="http://www.w3.org/1999/xlink" x="0px" y="0px"
	 viewBox="0 0 925.5 582.8" style="enable-background:new 0 0 925.5 582.8;" xml:space="preserve">
<style type="text/css">
	.st0{fill:#1B1F28;}
	.st1{fill:none;}
</style>
<path class="st0" d="M179.4,250.4c15-14.6,33.7-24.9,54.1-29.6c-28.4,28.6-57,57-85.5,85.5c3.6-15.5,10.3-30.1,19.9-42.9h-62.6
	c0,28.5,0,57,0,85.5c28.5,0,57,0,85.5,0c0-20.3,0-40.6,0-60.9c4.4-4.3,8.7-8.6,13.1-12.9c0,25.6,0,51.1,0,76.6c0,2.8-0.1,6-2.2,8.1
	c-2.1,2.4-5.5,1.8-8.3,2c-31.3-0.1-62.6,0.1-93.9-0.1c-3.9,0.5-6.6-2.7-7.4-6.2v-98.9c0.9-3.9,4.6-6.6,8.6-6.2
	C126.9,250.3,153.1,250.4,179.4,250.4 M274.7,276.3c4.4,0,8.9,0,13.3,0c8.6,12.6,17.4,25,26.1,37.6c8.8-12.5,17.5-25.1,26.3-37.7
	c4.3,0,8.7,0,13,0c-11.1,16.4-22.6,32.5-33.9,48.7c0,12.3,0,24.5-0.1,36.8h-10.8c-0.1-12.1,0.2-24.3-0.2-36.5
	C297.7,308.7,285.9,292.7,274.7,276.3 M367.3,362.1c11.2-28.6,22.4-57.2,33.5-85.8h12c11.2,28.6,22.3,57.2,33.5,85.8h-11.7
	c-9.3-23.8-18.5-47.5-27.9-71.3c-9.3,23.8-18.6,47.5-27.8,71.3H367.3 M480.7,276.3h13.9c14.1,23.4,28.1,46.9,42.2,70.4
	c0-23.5,0-46.9,0-70.4h10.7c0,28.5,0,57,0,85.5h-14.2c-14.1-23.3-28-46.7-42-70.1c0,23.3,0,46.7,0,70.1h-10.6V276.3 M593.9,276.3
	c9.8,0.1,19.7-0.1,29.5,0.1c11.1,0.4,20.7,10.2,21.2,21.2c0.4,6.3-1.7,12.6-6,17.3c6.6,4.4,11.5,11.6,11.9,19.7
	c1.5,13.7-10,26.9-23.7,27.5c-11,0.3-22,0-32.9,0.1C594,333.5,594,304.9,593.9,276.3 M604.7,287.1v24.1c5.8-0.1,11.5,0.1,17.3,0
	c6.1,0,11.7-5.2,11.8-11.4c0.4-6.4-4.3-11.9-10.6-12.5C617,286.9,610.9,287.3,604.7,287.1 M604.7,322c0,9.8,0,19.6,0,29.3
	c7.2-0.1,14.4,0.2,21.6-0.2c7.5-0.6,13.3-6.8,13.5-14.4c0.4-7.6-6.3-14.4-13.8-14.7C618.9,321.8,611.8,322.2,604.7,322 M708.5,276.3
	h12c11.2,28.6,22.3,57.2,33.5,85.8h-11.6c-8.8-22.5-17.6-45-26.4-67.5c-0.5-1.1-1.1-2.1-1.7-3.2c-9.3,23.5-18.5,47.1-27.6,70.7
	c-3.9,0-7.7,0-11.6,0C686.2,333.4,697.5,304.9,708.5,276.3 M787.6,276.3h10.7c0,25,0,50,0,75c11.7,0,23.3,0,35,0c0,3.5,0,7,0,10.5
	h-45.8L787.6,276.3L787.6,276.3z"/>
<rect x="65.5" y="194.9" class="st1" width="794.5" height="193.1"/>
</svg>
